# Blender v2.70 (sub 0) OBJ File: ''
# www.blender.org
v 0.707106 0.707108 0.000001
v 0.555569 0.831470 0.000001
v 0.000000 0.000000 0.000000
v 0.195091 -0.980785 -0.000001
v 0.382684 -0.923879 -0.000001
v -0.923880 0.382683 0.000000
v -0.980785 0.195090 0.000000
v 0.923879 0.382684 0.000000
v 0.831469 0.555571 0.000000
v -0.707107 0.707107 0.000001
v -0.831470 0.555570 0.000000
v -0.195090 -0.980785 -0.000001
v 0.000000 -1.000000 -0.000001
v 1.000000 0.000001 0.000000
v 0.980785 0.195091 0.000000
v -0.382683 0.923880 0.000001
v -0.555570 0.831470 0.000001
v -0.555570 -0.831470 -0.000001
v -0.382683 -0.923880 -0.000001
v 0.923880 -0.382683 -0.000000
v 0.980785 -0.195089 -0.000000
v 0.000000 1.000000 0.000001
v -0.195090 0.980785 0.000001
v -0.831470 -0.555570 -0.000000
v -0.707107 -0.707107 -0.000001
v 0.195089 0.980786 0.000001
v 0.707107 -0.707106 -0.000001
v 0.831470 -0.555570 -0.000000
v -0.980785 -0.195090 -0.000000
v -0.923880 -0.382683 -0.000000
v 0.382682 0.923880 0.000001
v 0.555571 -0.831469 -0.000001
v -1.000000 0.000000 0.000000
vt 0.645815 0.980689
vt 0.549236 0.999900
vt 0.500000 0.500000
vt 0.818668 0.111703
vt 0.888298 0.181333
vt 0.000100 0.450763
vt 0.019312 0.354183
vt 0.818668 0.888297
vt 0.736792 0.943005
vt 0.019311 0.645815
vt 0.000100 0.549235
vt 0.645816 0.019311
vt 0.736791 0.056995
vt 0.943005 0.736791
vt 0.888298 0.818667
vt 0.111702 0.818668
vt 0.056994 0.736791
vt 0.450765 0.000100
vt 0.549237 0.000100
vt 0.999900 0.549235
vt 0.980689 0.645815
vt 0.263208 0.943006
vt 0.181332 0.888297
vt 0.263209 0.056994
vt 0.354185 0.019311
vt 0.354184 0.980689
vt 0.980689 0.354185
vt 0.999900 0.450764
vt 0.111703 0.181332
vt 0.181333 0.111702
vt 0.450764 0.999900
vt 0.943006 0.263209
vt 0.056995 0.263208
vn -0.000001 -0.000001 1.000000
vn 0.000000 -0.000001 1.000000
vn 0.000000 -0.000000 1.000000
vn -0.000003 -0.000004 1.000000
vn 0.000003 -0.000004 1.000000
vn 0.000001 -0.000001 1.000000
s off
f 1/1/1 2/2/1 3/3/1
f 4/4/2 5/5/2 3/3/2
f 6/6/3 7/7/3 3/3/3
f 8/8/3 9/9/3 3/3/3
f 10/10/4 11/11/4 3/3/4
f 12/12/2 13/13/2 3/3/2
f 14/14/3 15/15/3 3/3/3
f 16/16/2 17/17/2 3/3/2
f 18/18/2 19/19/2 3/3/2
f 20/20/3 21/21/3 3/3/3
f 22/22/2 23/23/2 3/3/2
f 24/24/5 25/25/5 3/3/5
f 26/26/2 22/22/2 3/3/2
f 27/27/4 28/28/4 3/3/4
f 29/29/3 30/30/3 3/3/3
f 2/2/2 31/31/2 3/3/2
f 5/5/2 32/32/2 3/3/2
f 7/7/3 33/33/3 3/3/3
f 9/9/5 1/1/5 3/3/5
f 13/13/2 4/4/2 3/3/2
f 11/11/3 6/6/3 3/3/3
f 15/15/3 8/8/3 3/3/3
f 17/17/6 10/10/6 3/3/6
f 19/19/2 12/12/2 3/3/2
f 21/21/3 14/14/3 3/3/3
f 23/23/2 16/16/2 3/3/2
f 25/25/1 18/18/1 3/3/1
f 28/28/3 20/20/3 3/3/3
f 30/30/3 24/24/3 3/3/3
f 31/31/2 26/26/2 3/3/2
f 32/32/6 27/27/6 3/3/6
f 33/33/3 29/29/3 3/3/3
